<?xml version="1.0" encoding="utf-8"?>
<!-- Generator: Adobe Illustrator 19.2.1, SVG Export Plug-In . SVG Version: 6.00 Build 0)  -->
<svg version="1.1" id="Calque_1" xmlns="http://www.w3.org/2000/svg" xmlns:xlink="http://www.w3.org/1999/xlink" x="0px" y="0px"
	 viewBox="0 0 420.3 72.7" style="enable-background:new 0 0 420.3 72.7;" xml:space="preserve">
<g>
	<path d="M13.2,64.3c-0.2,0-0.5-0.1-1.1-0.3c-0.9-3.5-2.1-10.6-3.7-21.3C6.8,32,5.5,24.1,4.7,19.1c-0.8-5-1.5-8.1-2.1-9.1
		C2.8,9.5,3.2,9.3,4,9.3c0.8,0,1.3,0.9,1.5,2.6c0,0.2,0.2,1.2,0.6,3c0.3,1.8,1.2,7.6,2.6,17.5c1.4,9.9,2.7,17.5,4,22.8
		c0.3-1.4,0.5-2.8,0.6-4.1c0.1-1.3,0.7-6.2,1.7-14.7c1.8-15.3,2.7-24,2.7-26v-0.3C18.4,9.4,18.9,9,19.4,9l0.4,0.3h-0.1l0.7,0.6
		c0,1-0.2,2.5-0.5,4.5c-0.3,2-0.5,3.5-0.5,4.5c-0.5,0.9-1.4,7.7-2.8,20.5c-1.4,12.8-2.1,20.6-2.1,23.4
		C14.2,63.8,13.7,64.3,13.2,64.3z M12.7,55.4l-0.1,0.2h0.2L12.7,55.4z"/>
	<path d="M44.1,41.9l-0.7,9.3l0.1,0.3c-0.4,1.6-0.6,3.1-0.6,4.4c0,1.3-0.3,2.6-0.8,4c-0.5,1.4-1.3,2.6-2.3,3.7
		c-1,1.1-2.1,1.6-3.3,1.6c-1.2,0-2.3-0.4-3.3-1.3c-1-0.9-1.8-2-2.5-3.4c-0.7-1.4-1.3-3-1.8-5c-0.5-1.9-0.9-3.8-1.2-5.6
		c-0.3-1.8-0.5-3.7-0.7-5.7c-0.3-3.3-0.4-6.1-0.4-8.5c0-2.4,0.1-5.1,0.3-8.2c0.2-3.1,0.3-5.1,0.4-5.9c0-0.9,0-1.7,0.1-2.4
		c0-0.7,0.1-1.5,0.2-2.4c0.1-0.9,0.2-1.8,0.4-2.5c0.2-0.7,0.4-1.4,0.7-2.2c0.3-0.8,0.7-1.4,1.1-1.9c1-1.1,2.4-1.7,4.1-1.7
		c1.8,0,3.2,0.5,4.4,1.4c0.2,0.3,0.6,0.8,1.3,1.7c0.7,0.9,1.2,1.7,1.5,2.5c0.3,0.8,0.7,2.8,1.1,6C43.5,28.3,44.1,35.6,44.1,41.9z
		 M34.2,10.3c-3.5,0-5.3,7.1-5.3,21.3v2.8c0,3.3,0.3,6.9,0.8,10.7c0.5,3.8,1,6.9,1.6,9.3c0.6,2.4,1.3,4.4,2.3,6.1
		c1,1.7,2.1,2.5,3.3,2.5c1.6,0,2.8-1.7,3.6-5c0.8-3.3,1.2-6.3,1.3-8.9c0.2-3.6,0.2-5.9,0.2-7v-1.7c0-0.9,0-1.6,0-2.3
		c0-0.6,0-1.6-0.1-3.1c0-1.4-0.1-2.7-0.1-3.8c-0.1-1.1-0.2-2.4-0.3-4c-0.1-1.6-0.3-3-0.5-4.2s-0.5-2.5-0.7-3.9
		c-0.3-1.4-0.6-2.6-1-3.6c-0.4-1-0.8-1.9-1.3-2.8C37,11.2,35.7,10.3,34.2,10.3z"/>
	<path d="M58.1,64.6c-0.7,0-1-0.6-1-1.8l0.4-13.9L57,43.1c0-0.8-0.1-1.9-0.4-3.4c-0.3-1.5-0.4-2.5-0.4-3.1s-0.1-1.2-0.2-1.9
		c-0.1-0.7-0.3-1.5-0.5-2.5c-0.2-1-0.4-1.7-0.5-2.2s-0.4-2-0.8-4.3c-1-4.9-1.8-8.5-2.4-10.7c-0.7-2.2-1-3.7-1-4.3
		c0-1,0.5-1.5,1.4-1.5l0.8,0.6c0.1,1.9,0.7,5.7,1.9,11.4c1.1,5.6,2,8.9,2.7,9.7c0.8-2.2,1.3-5,1.5-8.3c0.3-3.3,0.5-5.8,0.7-7.5
		c0.4-3.7,1.1-5.6,2-5.6c0.7,0,1.1,0.3,1.1,0.8c0,0.4-0.1,0.9-0.3,1.6c-0.2,0.7-0.3,1.3-0.4,1.8c-0.1,0.5-0.4,2.1-0.8,4.6
		c-0.5,2.6-0.8,4.5-1,5.8c-0.6,3.8-0.9,7.3-0.9,10.5l0.2,2.4L59.1,38v0.6l0.5,8.6c0,6.5,0,11.3-0.1,14.6l0.2,0.2l0.1,0.5
		c0,0.5-0.1,1-0.4,1.5C59.1,64.3,58.7,64.6,58.1,64.6z"/>
	<path d="M85.7,42.6l0.8,18.8v0.8c0,0.6-0.1,0.9-0.2,1.1c-0.4,0.3-0.8,0.5-1.2,0.5c-0.4,0-0.8-0.1-1.1-0.4c-0.3-0.2-0.4-0.5-0.4-0.9
		c0.1-0.3,0.2-0.6,0.2-0.8l-0.2-1.4V53c0-0.6-1.3-1.2-3.8-1.6s-4.4-0.7-5.6-0.7c-0.5,0-0.9,0.9-1.3,2.6c-0.4,1.7-0.7,3.7-1.1,5.7
		c-0.4,2.1-0.7,3.4-1.1,3.9c-1.1,0-1.9-0.3-2.2-0.9c0.8-1.1,1.5-3.7,2.2-7.9c0.7-4.2,1.2-7.2,1.7-9.1c0.4-1.9,1.2-6,2.3-12.3
		c1.1-6.3,1.8-10.3,2.2-12.1c0.4-1.8,0.7-3.1,0.9-3.9c0.2-0.8,0.5-1.8,0.8-3c0.8-2.8,1.5-4.1,2.1-4.1c0.8,0,1.2,0.2,1.5,0.5
		c0.2,0.3,0.5,1.1,0.6,2.4c0.2,1.3,0.4,2.8,0.5,4.8s0.3,3.7,0.5,5.3c0.4,5.1,0.7,8.4,0.8,10c0.1,1.6,0.3,2.7,0.7,3.4
		c-0.1,1.5-0.1,2.7-0.1,3.7C85,40.9,85.3,41.8,85.7,42.6z M73.9,48.7c2,0.7,4.4,1,7.3,1c0.6,0,1,0,1.3-0.1l0.4,0.1
		c0.4,0,0.7-0.2,0.7-0.7c0-10-0.9-20.8-2.8-32.4c0-0.1-0.1-0.4-0.2-0.8c-0.1-0.4-0.1-0.7-0.1-0.9c-0.6,1.7-0.9,2.7-0.9,3.2l0.2,0.4
		c-0.2,0.2-0.4,1-0.8,2.5c-0.4,1.5-0.9,4.6-1.6,9.2c-0.7,4.7-1.1,7.6-1.4,9c-0.3,1.3-0.6,2.5-0.9,3.6c-0.7,2.4-1,4.2-1,5.5V48.7z"/>
	<path d="M110.3,47.4c1.5,0,2.3,1,2.3,3c0,1.4,0.2,3.6,0.7,6.4c0.5,2.8,0.7,5,0.7,6.4c0,0.7-0.3,1.1-0.9,1.1c-1.1,0-1.7-0.5-1.7-1.6
		c0,0,0-0.1,0-0.2c0-0.1,0-0.2,0-0.2c-0.5,0.1-1.1,0.5-1.8,1c-0.8,0.5-1.3,0.9-1.7,1c-0.4,0.1-0.9,0.2-1.7,0.2
		c-0.8,0-1.3,0.2-1.7,0.4h0.1c-3.2-0.7-5.5-1.8-7.1-3.3c-1.3-1.2-2.2-3.2-2.7-6.1C94,51,93.5,43.3,93.5,32.8c0-4.1,0.1-7.1,0.4-8.8
		c0.2-1.7,0.5-3.3,0.8-4.6c0.3-1.3,0.6-2.5,1-3.4c0.4-1,0.9-2,1.5-3c0.6-1,1.2-1.8,2-2.5c1.6-1.4,3.6-2.1,5.9-2.1
		c1.4,0,2.1,0.4,2.1,1.2c0,0.6-0.4,0.9-1.1,0.9l-2-0.4c-3.7,0-6.1,3.4-7.1,10.1c-0.6,3.7-0.9,8.4-0.9,14.3c-0.1,3.8-0.2,6.4-0.2,7.9
		c0,1.5,0,2.6,0,3.4c0,0.8,0.1,1.8,0.2,3c0.1,1.2,0.2,2.3,0.4,3.3c0.2,1,0.4,2,0.7,3.1s0.7,2.1,1.1,2.9c0.5,0.8,1,1.6,1.7,2.3
		c1.3,1.5,3.2,2.2,5.5,2.2c2.4,0,4.3-1.2,5.9-3.6c0-3.6-0.2-6-0.7-7.3c-0.4-1.3-0.8-2-1.2-2l-2.9,0.3c-1.1,0-1.7-0.4-1.7-1.2
		c0-0.4,0.7-0.8,2.1-1.1C108.5,47.5,109.5,47.4,110.3,47.4z"/>
	<path d="M124.4,61.5l4.3-0.2c2.3,0,3.4,0.4,3.4,1.2c-0.4,0.7-1.1,1.2-2.1,1.4c-1,0.2-2,0.3-3,0.3h-1.7c-2.2,0-3.4-0.2-3.7-0.5
		c-0.3-0.3-0.5-0.7-0.5-1.1l0.7-2.7v-0.1c-0.2-1-0.3-2-0.3-3.2l0.4-7.3l-0.4-15.4l0.4-14.3c0-0.9-0.2-2.1-0.5-3.8
		c-0.3-1.7-0.5-2.9-0.5-3.7l1.3-2l5-0.6l0.2,0.2c1.1,0,1.8,0.1,2,0.4c0.2,0.3,0.3,0.6,0.3,0.9c0,0.9-0.9,1.4-2.6,1.4l-1.9-0.1
		c-1.1,0-1.6,0.3-1.6,0.8l0.6,12.2l-0.4,9l-0.1,0.1l0.4,0.2l4-0.7c0.3,0,0.5,0.1,0.8,0.4c0.3,0.3,0.5,0.5,0.5,0.8
		c0,1-0.4,1.4-1.1,1.4l-1.7-0.1c-1.8,0-2.7,0.5-2.7,1.4l0.5,6l-0.2,0.4v14.6c0.3,0.3,0.4,1,0.4,2V61.5z"/>
	<path d="M145.5,17.8l-1.5-0.4c-0.8,0-1.4,0.3-2,0.9s-1,1.3-1.3,2.2c-0.6,1.7-0.9,3.1-0.9,4.1s0,1.7,0.1,2.1c0,0.4,0.1,0.9,0.3,1.5
		c0.1,0.6,0.2,1,0.3,1.2c0,0.2,0.2,0.7,0.4,1.5c0.2,0.7,0.3,1.2,0.4,1.2l0.5,1.3c0.5,0.8,1.1,1.9,1.8,3.2c0.8,1.3,1.3,2.2,1.7,2.9
		c0.4,0.7,0.8,1.5,1.3,2.6c0.5,1.1,0.8,2,1.1,2.9c0.6,2.2,0.9,4.2,0.9,6c0,1.8-0.1,3.2-0.2,4.3c-0.1,1.1-0.4,2.2-0.8,3.3
		s-0.9,2.1-1.4,3c-1.3,2-3.1,3-5.4,3l-0.4,0.2c-1.4-0.3-2.2-0.8-2.3-1.8l0.4-0.6l2.6,0.5c1.1,0,2.1-0.4,2.8-1.3
		c0.8-0.9,1.4-1.9,1.8-3.3c0.7-2.4,1.1-4.7,1.1-6.8s-0.3-4-0.9-5.9c-0.6-1.8-1.3-3.5-2.2-5c-0.8-1.5-1.7-3-2.5-4.6
		c-2-3.7-3.1-7.3-3.1-10.9c0-1.8,0.3-3.6,1-5.2c1.2-3.1,2.8-4.6,4.7-4.6c0.5,0,1.1,0.2,1.8,0.6c0.6,0.4,1,0.9,1,1.4
		C146.5,17.6,146.2,17.8,145.5,17.8z M146,17.5L146,17.5L146,17.5C146.1,17.5,146.1,17.5,146,17.5z"/>
	<path d="M155.6,69.4l0.1-0.7c2.5-2.1,3.8-3.8,3.8-5.2c-0.6-0.3-1.1-0.8-1.5-1.4c-0.4-0.6-0.6-1.2-0.6-1.8s0.3-1.2,0.9-1.6
		c0.6-0.4,1.2-0.6,1.8-0.6c1.1,0,1.9,0.7,2.4,2.1l-0.1,0.2c0.1,0.2,0.1,0.6,0.1,1.2c0,0.6-0.3,1.6-0.9,2.9c-0.6,1.4-1.3,2.6-2.3,3.7
		c-0.9,1.1-1.8,1.7-2.6,1.7L155.6,69.4z"/>
	<path d="M182.8,51.5l0.4,10.3c0,1.9-0.6,2.9-1.7,2.9l-1.4-1.1c0.4-4.6,0.7-9.5,0.7-14.6s0.2-10.9,0.5-17.4
		c0.3-6.5,0.5-11.3,0.5-14.5c0-0.4,0.2-0.8,0.6-1c0.4-0.2,1.1-0.4,2-0.4s2.5,0.2,4.7,0.5c2.2,0.4,3.3,0.9,3.3,1.5
		c0,0.8-0.9,1.2-2.6,1.2c-0.9-0.5-1.9-0.7-3-0.7s-1.7,0-1.9,0.1c-0.2,0-0.3,0.1-0.3,0.2c0,0.1-0.1,0.2-0.2,0.5
		c-0.1,0.3-0.2,0.5-0.3,0.8L183.4,35v2.5c0,0.2,0.4,0.2,1.2,0.2c2.4,0,3.6,0.3,3.6,1.1c0,0.4-0.2,0.7-0.6,1
		c-0.4,0.3-0.8,0.4-1.2,0.4l-2.4-0.4c-0.9,0-1.3,1.2-1.3,3.5V51.5z M180.5,28L180.5,28c0,0.1,0,0.1-0.1,0.1c-0.1,0-0.1,0-0.1-0.1
		C180.3,28,180.4,28,180.5,28L180.5,28z"/>
	<path d="M210,63.1l-2.4-0.2c-0.4,0-0.8,0.1-1.3,0.4c-0.5,0.3-1.1,0.4-1.8,0.4s-1.2-0.2-1.4-0.7l-1.2,0.1c-1,0-1.7-0.2-2-0.7
		c0-0.3,0.1-0.6,0.4-0.8c0.3-0.2,0.5-0.4,0.5-0.5h2.1l0.3-0.3l0.2-1.5l-0.5-15.8l0.4-16.8c0-3.3-0.1-6-0.4-8.3
		c-0.5-0.1-1.2-0.2-2.1-0.2l-1.7,0.1c-0.9,0-1.4-0.4-1.4-1.2c0-0.2,0.2-0.4,0.7-0.6c0.4-0.2,0.8-0.3,1.1-0.3c6.7,0,10,0.7,10,2.2
		c0,0.1-0.1,0.3-0.2,0.6l-1.7,0.1c-0.4-0.3-1.1-0.4-2.1-0.4l-0.4,0.2c0.1,0.4,0.2,1.7,0.2,3.8l-0.2,17.1l0.5,15.8l-0.1,2.2
		c0,1.1,0.1,1.8,0.2,2l-0.1,0.2c0,0.5,0.5,0.7,1.6,0.7l2.1-0.1c1.4,0,2.1,0.3,2.1,1c0,0.4-0.2,0.8-0.5,1
		C210.8,63,210.4,63.1,210,63.1z"/>
	<path d="M221,62l6.8,0.2h0.2c0.3,0,0.5,0.1,0.7,0.4c0.2,0.3,0.4,0.5,0.4,0.8c0,0.5-0.4,0.8-1.2,0.9c-1.2,0-3.2-0.1-6-0.1l0.1,0.1
		l-2.7,0.2c-0.7,0-1.1-0.6-1.2-1.7c0.1-0.5,0.1-1.3,0.1-2.4l0.4-38.4l0.4-4.7c0-0.3,0.2-0.5,0.5-0.5l1.2,0.3l-0.1,5.7l0.1,15.7
		c-0.1,3.9-0.2,6-0.2,6l0.1,6.1l-0.2,0.6l0.1-0.1l-0.1,0.6c0,0.4,0.1,0.7,0.2,1l-0.2,6.9v0.5c0,0.8,0,1.2,0.1,1.5
		C220.7,61.9,220.8,62,221,62z"/>
	<path d="M264.6,49.3l-0.1,7.6c0,3.4,0.2,5.8,0.7,7.5c0.1,0.3,0.1,0.6,0.1,0.9c0,0.3-0.1,0.8-0.4,1.3c-0.3,0.5-0.7,0.8-1.1,0.8
		c-1,0-1.4-1.5-1.4-4.6c0-10-0.1-16.1-0.2-18.3c-0.2-2.2-0.3-4-0.5-5.3c-0.2-1.4-0.3-2.4-0.3-3.1l0.3-8.9c0-1.7-0.1-2.8-0.3-3.4
		c-0.9,0.8-3.8,10.9-8.6,30.3c0,0.2-0.1,0.5-0.2,1.1c-0.1,0.5-0.1,1-0.2,1.5s-0.2,0.9-0.3,1.4c-0.3,1.1-0.8,1.6-1.5,1.6
		c-0.8,0-1.4-0.2-1.7-0.6s-0.5-1-0.5-1.8c0-2-1.2-7.9-3.7-17.9c-2.5-9.9-4.1-15.3-5-16.1c-0.1,2.6-0.3,6.5-0.6,11.8
		c-0.6,11.1-0.9,18.5-0.9,22.3s0,6,0.1,6.6c-0.2,0.6-0.7,0.9-1.5,0.9c-0.2,0-0.4-0.1-0.7-0.4c-0.3-0.3-0.5-0.5-0.5-0.6
		c0-5.1,0.4-12.6,1.1-22.7c0.8-10.1,1.1-17.6,1.1-22.7l-0.4-1.4c0-0.7,0.6-1.1,1.9-1.1c0.7,0,1.2,0.4,1.4,1.1
		c0.2,0.6,0.3,1.2,0.3,1.8c0,0.6,0.1,1.3,0.3,2.1c0.1,0.8,0.8,2.4,1.8,4.9c1.1,2.4,1.8,4.1,2,5c0.2,0.9,0.5,1.9,0.9,3.2
		c0.8,2.7,1.3,4.8,1.5,6.2l0.9,1.9c0.1,0.8,0.4,2,0.8,3.5c0.8,3.3,1.2,5.8,1.3,7.8c0.6-0.8,2.1-5.8,4.5-14.9
		c2.5-9.1,3.8-14.2,4-15.4s0.4-2.1,0.5-2.7c0.1-0.6,0.2-1.1,0.3-1.5c0.1-0.4,0.2-0.8,0.4-1.3c0.4-1,0.9-1.5,1.8-1.5
		c0.3,0,0.7,0.1,1.1,0.4s0.7,0.6,0.7,0.9C263.6,37.7,264,48.3,264.6,49.3z M261.3,23.3L261.3,23.3l-0.2,0.1l0.2,0.1V23.3z"/>
	<path d="M279.6,17.8l-1.5-0.4c-0.8,0-1.4,0.3-2,0.9s-1,1.3-1.3,2.2c-0.6,1.7-0.9,3.1-0.9,4.1s0,1.7,0.1,2.1s0.1,0.9,0.3,1.5
		s0.2,1,0.3,1.2c0,0.2,0.2,0.7,0.4,1.5s0.3,1.2,0.4,1.2l0.5,1.3c0.5,0.8,1.1,1.9,1.8,3.2c0.8,1.3,1.3,2.2,1.7,2.9
		c0.4,0.7,0.8,1.5,1.3,2.6c0.5,1.1,0.8,2,1.1,2.9c0.6,2.2,0.9,4.2,0.9,6c0,1.8-0.1,3.2-0.2,4.3c-0.1,1.1-0.4,2.2-0.8,3.3
		s-0.9,2.1-1.4,3c-1.3,2-3.1,3-5.4,3l-0.4,0.2c-1.4-0.3-2.2-0.8-2.3-1.8l0.4-0.6l2.6,0.5c1.1,0,2.1-0.4,2.8-1.3
		c0.8-0.9,1.4-1.9,1.8-3.3c0.7-2.4,1.1-4.7,1.1-6.8s-0.3-4-0.9-5.9c-0.6-1.8-1.3-3.5-2.2-5c-0.8-1.5-1.7-3-2.5-4.6
		c-2-3.7-3.1-7.3-3.1-10.9c0-1.8,0.3-3.6,1-5.2c1.2-3.1,2.8-4.6,4.7-4.6c0.5,0,1.1,0.2,1.8,0.6c0.6,0.4,1,0.9,1,1.4
		C280.5,17.6,280.2,17.8,279.6,17.8z M280.1,17.5L280.1,17.5L280.1,17.5C280.2,17.5,280.1,17.5,280.1,17.5z"/>
	<path d="M289.7,69.4l0.1-0.7c2.5-2.1,3.8-3.8,3.8-5.2c-0.6-0.3-1.1-0.8-1.5-1.4c-0.4-0.6-0.6-1.2-0.6-1.8s0.3-1.2,0.9-1.6
		s1.2-0.6,1.8-0.6c1.1,0,1.9,0.7,2.4,2.1l-0.1,0.2c0.1,0.2,0.1,0.6,0.1,1.2c0,0.6-0.3,1.6-0.9,2.9c-0.6,1.4-1.3,2.6-2.3,3.7
		c-0.9,1.1-1.8,1.7-2.6,1.7L289.7,69.4z"/>
	<path d="M321.3,17.8l-1.5-0.4c-0.8,0-1.4,0.3-2,0.9s-1,1.3-1.3,2.2c-0.6,1.7-0.9,3.1-0.9,4.1s0,1.7,0.1,2.1s0.1,0.9,0.3,1.5
		s0.2,1,0.3,1.2c0,0.2,0.2,0.7,0.4,1.5s0.3,1.2,0.4,1.2l0.5,1.3c0.5,0.8,1.1,1.9,1.8,3.2c0.8,1.3,1.3,2.2,1.7,2.9
		c0.4,0.7,0.8,1.5,1.3,2.6c0.5,1.1,0.8,2,1.1,2.9c0.6,2.2,0.9,4.2,0.9,6c0,1.8-0.1,3.2-0.2,4.3c-0.1,1.1-0.4,2.2-0.8,3.3
		s-0.9,2.1-1.4,3c-1.3,2-3.1,3-5.4,3l-0.4,0.2c-1.4-0.3-2.2-0.8-2.3-1.8l0.4-0.6l2.6,0.5c1.1,0,2.1-0.4,2.8-1.3
		c0.8-0.9,1.4-1.9,1.8-3.3c0.7-2.4,1.1-4.7,1.1-6.8s-0.3-4-0.9-5.9c-0.6-1.8-1.3-3.5-2.2-5c-0.8-1.5-1.7-3-2.5-4.6
		c-2-3.7-3.1-7.3-3.1-10.9c0-1.8,0.3-3.6,1-5.2c1.2-3.1,2.8-4.6,4.7-4.6c0.5,0,1.1,0.2,1.8,0.6c0.6,0.4,1,0.9,1,1.4
		C322.2,17.6,321.9,17.8,321.3,17.8z M321.8,17.5L321.8,17.5L321.8,17.5C321.9,17.5,321.8,17.5,321.8,17.5z"/>
	<path d="M331.7,63.1l0.1-1.8l-0.2-0.3c0.4-1,0.5-1.9,0.5-3l-0.4-9.5l0.5-21.7l-0.3-8.6c0-1.4,0.7-2,2.1-2c0.5,0,0.9,0.2,1.2,0.5
		c0.2,0,0.9,0.1,2.1,0.3c3,0.3,4.5,0.9,4.5,1.8c0,0.4-0.5,0.8-1.4,1.4c-2.6-0.9-4.6-1.3-5.8-1.4l-0.4,0.4c0,0.7,0.1,1.7,0.1,3.1
		l-0.3,11.2c0,1.3,0.3,2,1,2l2.4-0.1c1.8,0,2.8,0.4,2.8,1.3c0,0.5-0.1,0.9-0.4,1.3c-0.2,0.4-0.7,0.6-1.3,0.6s-1.1-0.2-1.4-0.6
		l-2.4-0.4h-0.3l-0.4,0.4v0.2c0.1,1.2,0.1,3.1,0.1,5.7L334.1,54c0,4.8,0.3,7.4,1,7.9c0.4,0.4,1.2,0.5,2.3,0.5l2.7-0.1
		c1.4,0,2.1,0.3,2.1,0.9c0,0.9-1,1.3-3.1,1.3h-5.9C332.2,64.6,331.7,64.1,331.7,63.1z M335.6,11.7c-0.9,0-1.3-0.4-1.3-1.1
		c0-0.3,1.4-1.5,4.3-3.7c2.8-2.2,4.4-3.4,4.7-3.6c1.1,0,1.6,0.4,1.6,1.1c0,0-0.1,0.4-0.2,1.1C342.2,6.6,339.2,8.6,335.6,11.7z"/>
	<path d="M348.7,18.4c0-1.8,0.5-2.7,1.6-2.7c2.3,0,4.3,0.6,5.8,1.8c1.5,1.2,2.3,2.9,2.3,5.2v5.2c0,1.9-0.9,4.5-2.8,7.9
		c-0.6,1.1-0.9,1.8-0.9,1.9s0.9,3.9,2.7,11.4s2.8,11.4,2.9,11.6c0.1,0.2,0.3,0.7,0.7,1.5c0.4,0.8,0.6,1.4,0.6,1.9
		c0,0.5-0.3,0.8-0.8,0.8l-1.1-0.4c-1.1-1.3-2.4-6-3.7-14.1c-1.3-7.8-2.4-11.7-3.3-11.7h-0.3c-1.1,0-1.6,0.3-1.6,1
		c0,2.6,0.2,7,0.5,13.1c0.3,6.1,0.6,9.5,0.8,10.2l-0.5,1.2h-1.1l-0.5-0.6C349.1,43,348.7,27.8,348.7,18.4z M350.7,19.4l0.3,17.4
		l0.1,0.1c0.9,0,1.7-0.5,2.5-1.4s1.3-2.1,1.7-3.5c0.8-2.8,1.2-4.9,1.2-6.4c0-1.5,0-2.5-0.1-3.3s-0.3-1.5-0.6-2.3
		c-0.6-1.7-2-2.5-4.1-2.5c-0.3,0-0.5,0.2-0.6,0.7C350.8,18.6,350.7,19,350.7,19.4z"/>
	<path d="M379.3,63.1l-2.4-0.2c-0.4,0-0.8,0.1-1.3,0.4c-0.5,0.3-1.1,0.4-1.8,0.4s-1.2-0.2-1.4-0.7l-1.2,0.1c-1,0-1.7-0.2-2-0.7
		c0-0.3,0.1-0.6,0.4-0.8c0.3-0.2,0.5-0.4,0.5-0.5h2.1l0.3-0.3l0.2-1.5l-0.5-15.8l0.4-16.8c0-3.3-0.1-6-0.4-8.3
		c-0.5-0.1-1.2-0.2-2.1-0.2l-1.7,0.1c-0.9,0-1.4-0.4-1.4-1.2c0-0.2,0.2-0.4,0.7-0.6c0.4-0.2,0.8-0.3,1.1-0.3c6.7,0,10,0.7,10,2.2
		c0,0.1-0.1,0.3-0.2,0.6l-1.7,0.1c-0.4-0.3-1.1-0.4-2.1-0.4l-0.4,0.2c0.1,0.4,0.2,1.7,0.2,3.8l-0.2,17.1l0.5,15.8l-0.1,2.2
		c0,1.1,0.1,1.8,0.2,2l-0.1,0.2c0,0.5,0.5,0.7,1.6,0.7l2.1-0.1c1.4,0,2.1,0.3,2.1,1c0,0.4-0.2,0.8-0.5,1
		C380.2,63,379.8,63.1,379.3,63.1z"/>
	<path d="M387.6,63.1l0.1-1.8l-0.2-0.3c0.4-1,0.5-1.9,0.5-3l-0.4-9.5l0.5-21.7l-0.3-8.6c0-1.4,0.7-2,2.1-2c0.5,0,0.9,0.2,1.2,0.5
		c0.2,0,0.9,0.1,2.1,0.3c3,0.3,4.5,0.9,4.5,1.8c0,0.4-0.5,0.8-1.4,1.4c-2.6-0.9-4.6-1.3-5.8-1.4l-0.4,0.4c0,0.7,0.1,1.7,0.1,3.1
		l-0.3,11.2c0,1.3,0.3,2,1,2l2.4-0.1c1.8,0,2.8,0.4,2.8,1.3c0,0.5-0.1,0.9-0.4,1.3c-0.2,0.4-0.7,0.6-1.3,0.6s-1.1-0.2-1.4-0.6
		l-2.4-0.4h-0.3l-0.4,0.4v0.2c0.1,1.2,0.1,3.1,0.1,5.7L390,54c0,4.8,0.3,7.4,1,7.9c0.4,0.4,1.2,0.5,2.3,0.5l2.7-0.1
		c1.4,0,2.1,0.3,2.1,0.9c0,0.9-1,1.3-3.1,1.3H389C388.1,64.6,387.7,64.1,387.6,63.1z"/>
	<path d="M411.7,17.8l-1.5-0.4c-0.8,0-1.4,0.3-2,0.9s-1,1.3-1.3,2.2c-0.6,1.7-0.9,3.1-0.9,4.1s0,1.7,0.1,2.1s0.1,0.9,0.3,1.5
		s0.2,1,0.3,1.2c0,0.2,0.2,0.7,0.4,1.5s0.3,1.2,0.4,1.2l0.5,1.3c0.5,0.8,1.1,1.9,1.8,3.2c0.8,1.3,1.3,2.2,1.7,2.9
		c0.4,0.7,0.8,1.5,1.3,2.6c0.5,1.1,0.8,2,1.1,2.9c0.6,2.2,0.9,4.2,0.9,6c0,1.8-0.1,3.2-0.2,4.3c-0.1,1.1-0.4,2.2-0.8,3.3
		s-0.9,2.1-1.4,3c-1.3,2-3.1,3-5.4,3l-0.4,0.2c-1.4-0.3-2.2-0.8-2.3-1.8l0.4-0.6l2.6,0.5c1.1,0,2.1-0.4,2.8-1.3
		c0.8-0.9,1.4-1.9,1.8-3.3c0.7-2.4,1.1-4.7,1.1-6.8s-0.3-4-0.9-5.9c-0.6-1.8-1.3-3.5-2.2-5c-0.8-1.5-1.7-3-2.5-4.6
		c-2-3.7-3.1-7.3-3.1-10.9c0-1.8,0.3-3.6,1-5.2c1.2-3.1,2.8-4.6,4.7-4.6c0.5,0,1.1,0.2,1.8,0.6c0.6,0.4,1,0.9,1,1.4
		C412.6,17.6,412.3,17.8,411.7,17.8z M412.2,17.5L412.2,17.5L412.2,17.5C412.2,17.5,412.2,17.5,412.2,17.5z"/>
</g>
</svg>
